<?xml version="1.0" encoding="utf-8"?>
<!-- Generator: Adobe Illustrator 19.1.1, SVG Export Plug-In . SVG Version: 6.00 Build 0)  -->
<svg version="1.1" id="Слой_1" xmlns="http://www.w3.org/2000/svg" xmlns:xlink="http://www.w3.org/1999/xlink" x="0px" y="0px"
	 viewBox="0 0 800 800" style="enable-background:new 0 0 800 800;" xml:space="preserve">
<style type="text/css">
	.st0{fill:#FFFFFF;}
</style>
<path class="st0" d="M27.6,226.3l257.2,128l49.3,75.2v102.2l-47,24.7c-3.1,2.3-4.7,4.7-4.7,7c0,0.8,0.8,2.8,2.3,5.9l49.3,75.2v102.2
	l-45.8,23.5L27.6,639.7V226.3z M38.2,213.4l89.3-44.6L380,294.4l-91.6,45.8L38.2,215.7V213.4z M79.3,144.1l30.5,15.3v2.3l-68.1,34.1
	l31.7-47c0-0.8,0.6-1.6,1.8-2.3c1.2-0.8,1.8-1.6,1.8-2.3h1.2H79.3z M342.4,7.9l89.3,44.6v1.2L181.5,179.3l-91.6-45.8L342.4,7.9z
	 M232,488.2h2.3c0.8,0,1.9,0,3.5,0c1.6,0,2.3-0.8,2.3-2.3v-61.1L131,369.6h-3.5c-3.1,0-4.7,0.8-4.7,2.3V433L232,488.2z M232,649.1
	h2.3c0.8,0,1.9,0,3.5,0c1.6,0,2.3-0.8,2.3-2.3v-61.1L131,530.5h-3.5c-3.1,0-4.7,0.8-4.7,2.3v61.1L232,649.1z M165,402.5l-29.4,14.1
	v-29.4L165,402.5z M165,563.4l-29.4,14.1v-29.4L165,563.4z M146.2,428.3l35.2-18.8l45.8,23.5v37.6l-81-41.1V428.3z M146.2,589.2
	l35.2-18.8l45.8,23.5v37.6l-81-41.1V589.2z M348.2,211c0-1.6-0.8-2.3-2.3-2.3c-1.6,0-2.8,0-3.5,0h-3.5l-50.5,24.7l-90.4-45.8
	l190.3-96.3v191.4l-39.9-20V211z M298.9,350.8l39.9-20l4.7,4.7c0.8,0.8,3.3,4.5,7.6,11.2c4.3,6.7,9.6,14.7,15.9,24.1
	c6.3,9.4,11.3,16.8,15.3,22.3c0,1.6,0.8,3.1,2.3,4.7v1.2v1.2l-39.9,18.8L298.9,350.8z M298.9,565.7l39.9-20l4.7,4.7
	c0.8,0.8,3.3,4.5,7.6,11.2c4.3,6.7,9.6,14.7,15.9,24.1c6.3,9.4,11.3,16.8,15.3,22.3c0,1.6,0.8,3.1,2.3,4.7v1.2v1.2l-39.9,18.8
	L298.9,565.7z M334.1,226.3v29.4l-29.4-15.3L334.1,226.3z M388.2,414.2v90.4l-38.8,20V433L388.2,414.2z M388.2,628v91.6l-38.8,20
	V648L388.2,628z M401.1,727.8V612.7l-44.6-69.3c-0.8-0.8-1.6-1.9-2.3-3.5c0-1.6,0.8-2.3,2.3-2.3l44.6-23.5V397.8l-37.6-57.5
	l78.7,38.8v413.4l-83.4-41.1L401.1,727.8z M360,320.3l250.2-124.5l91.6,44.6L449.2,367.3L360,322.6V320.3z M594.9,187.6l-91.6,45.8
	l-50.5-24.7h-2.3c-0.8,0-2.3,0-4.7,0c-1.6,0-2.3,0.8-2.3,2.3v51.7l-39.9,20V91.3L594.9,187.6z M503.3,34.9l250.2,124.5v2.3
	l-89.3,44.6L411.7,79.5L503.3,34.9z M486.8,240.4l-29.4,15.3v-29.4L486.8,240.4z M718.2,248.6l45.8,23.5v102.2l-49.3,75.2
	c-1.6,1.6-2.3,3.5-2.3,5.9c0,2.3,1.6,4.7,4.7,7l47,24.7v102.2l-50.5,75.2l-256,128V379L718.2,248.6z M551.4,485.9
	c0,1.6,0.8,2.3,2.3,2.3c1.6,0,2.7,0,3.5,0h2.3L670,433V372c0-1.6-0.8-2.3-2.3-2.3c-1.6,0-2.8,0-3.5,0h-3.5l-109.2,55.2V485.9z
	 M551.4,646.8c0,1.6,0.8,2.3,2.3,2.3c1.6,0,2.7,0,3.5,0h2.3L670,593.9v-61.1c0-1.6-0.8-2.3-2.3-2.3c-1.6,0-2.8,0-3.5,0h-3.5
	l-109.2,55.2V646.8z M610.1,409.5l36.4,18.8v1.2l-82.2,41.1V433L610.1,409.5z M610.1,570.4l36.4,18.8v1.2l-82.2,41.1v-37.6
	L610.1,570.4z M657.1,387.2v29.4l-30.5-14.1L657.1,387.2z M657.1,548.1v29.4l-30.5-14.1L657.1,548.1z M683,213.4l81-41.1v83.4
	l-81-39.9V213.4z"/>
</svg>
